<svg version="1.2" xmlns="http://www.w3.org/2000/svg" viewBox="0 0 48 45" width="48" height="45">
	<title>1F4A9-svg</title>
	<style>
		.s0 { fill: #a57939 } 
		.s1 { fill: #6a462f } 
		.s2 { fill: #ffffff } 
		.s3 { fill: none;stroke: #000000;stroke-linecap: round;stroke-linejoin: round;stroke-width: 2 } 
		.s4 { fill: none;stroke: #000000;stroke-width: 2.4 } 
		.s5 { fill: #000000 } 
	</style>
	<g id="color">
	</g>
	<g id="color">
		<path id="Layer" class="s0" d="m10 22c0 0-1.5-3-1-5 0.3-1.2 1.3-1.8 3-3 1.6-1.1 2-1.7 3-2 0.7-2.5 1.5-4.5 2-7q0.4-2 1-4 4.7 2.2 9 5c2.3 1.5 3.5 2.4 4 4 0.6 2.1-0.5 4.1-1 5 1.7-0.4 3.6 0 5 1 1 0.7 1.8 1.8 2 3 0.2 1.4-0.1 2.9-1 4 1.4 0 2.8 0.3 4 1 1.3 0.6 2.4 1.7 3 3 0.7 1.9-0.2 4.3-2 6 1.4-0.2 2.9 0.1 4 1 1.5 1.2 2.3 3.1 2 5-0.5 3.5-4.6 4.9-5 5-2.2 0.7-5.3 0.2-10.2-0.4-4.4-0.6-12-0.4-18-0.4-5.5 1.1-12.8-1.2-12.8-4.2 0-2.7 2.3-4.5 3-5q1-0.6 2-1c-1-2-2-3-2-4 0-1.2 1.1-3.2 3-5 2.1-2.1 3-2 3-2z"/>
		<path id="Layer" class="s1" d="m18 1q4.7 2.2 9 5c2.3 1.5 3.5 2.4 4 4 0.6 2.1-0.5 4.1-1 5 1.7-0.4 3.6 0 5 1 1 0.7 1.8 1.8 2 3 0.2 1.4-0.1 2.9-1 4 1.4 0 2.8 0.3 4 1 1.3 0.6 2.4 1.7 3 3 0.7 1.9-0.2 4.3-2 6 1.4-0.2 2.9 0.1 4 1 1.5 1.2 2.3 3.1 2 5-0.5 3.5-4.6 4.9-5 5-2.2 0.7-14.8-1.2-10-2 6-1 7.9-2.7 8-3 1-2-2-4-4-4 0.2-3.3-0.7-5.8-6-7 0.7-3.2-0.2-8.1-4-9 2-4 0.4-7.2-1-10-2-4-3-6-7-8z"/>
		<path id="Layer" class="s2" d="m14.2 34.3c-2.7 0-4.9-3.1-4.9-6.9 0-3.8 2.2-6.9 4.9-6.9 2.7 0 4.9 3.1 4.9 6.9 0 3.8-2.2 6.9-4.9 6.9z"/>
		<path id="Layer" class="s2" d="m30.6 33.8c-2.7 0-4.9-3.1-4.9-6.9 0-3.8 2.2-6.9 4.9-6.9 2.7 0 4.9 3.1 4.9 6.9 0 3.8-2.2 6.9-4.9 6.9z"/>
	</g>
	<g id="line">
		<path id="Layer" class="s3" d="m37 23c1.5 0.1 3 0.9 4 2 1.3 1.7 2.5 4.5 0 7-2.8 2.8-6.2 4.9-10 6-6 2-15 5-21 5-5.1 0-9-1-9-5 0-4.4 7.7-4.9 10.2-5m5.8-24c0.3-1.7 0.8-3.9 1-5q0.3-1.5 0-3l8 4c4.1 2 4.6 3.7 5 5 0.5 1.6-0.7 4.1-1 5m11 18c0.6 0.1 4.8 0.5 6 4 1 3-2 7-6 7-4.3 0-7.5-1.2-11.7-1.6m-18.7-19.3c-0.2 0-0.4-0.1-0.6-0.1-0.7-1.2-1.1-2.6-1-4 0.2-2.6 1.7-4.8 4-6 1.9-0.9 2.7-0.1 5-1 1.6-0.6 3-1.7 4-3m-3.2 13.7c2.2-0.5 4.3-1.4 6.2-2.7 2-1.3 3.7-3 5-5 1 0.1 6 0 7 3 0.7 2.1-0.8 4.8-1 5q-0.2 0.4-0.5 0.7m-17.2 9c2.9-0.3 5.8-1.1 8.5-2.4m-15.6 2.7h0.7m-5.9 0c-0.1-0.2-2.6-4.1-1-7 1.3-2.3 4.6-2.9 5-3"/>
		<path id="Layer" class="s4" d="m17.9 32.6c-0.7 1-1.9 1.7-3.2 1.7-2.7 0-4.9-3.1-4.9-6.9 0-3.8 2.2-6.9 4.9-6.9 2.7 0 4.9 3.1 4.9 6.9 0 1.9-0.6 3.7-1.7 5.2z"/>
		<path id="Layer" class="s4" d="m26.8 30.3q-0.6-1.6-0.6-3.4c0-3.8 2.2-6.9 4.9-6.9 2.7 0 4.9 3 4.9 6.9 0 3.9-2.2 6.9-4.9 6.9-1.8 0-3.4-1.4-4.3-3.5z"/>
		<path id="Layer" class="s5" d="m33.1 27c0 1.1-0.9 2-2 2-1.1 0-2-0.9-2-2 0-1.1 0.9-2 2-2 1.1 0 2 0.9 2 2z"/>
		<path id="Layer" class="s5" d="m16.7 27.4c0 1.1-0.9 2-2 2-1.1 0-2-0.9-2-2 0-1.1 0.9-2 2-2 1.1 0 2 0.9 2 2z"/>
	</g>
</svg>