<svg version="1.2" xmlns="http://www.w3.org/2000/svg" viewBox="0 0 45 57" width="45" height="57">
	<title>1F33B(1)-svg</title>
	<style>
		.s0 { fill: #fcea2b } 
		.s1 { fill: #f1b31c } 
		.s2 { fill: #5c9e31 } 
		.s3 { fill: none;stroke: #000000;stroke-linecap: round;stroke-linejoin: round;stroke-width: 2 } 
	</style>
	<g id="hair">
	</g>
	<g id="color">
		<path id="Layer" class="s0" d="m29.3 13.5c0.3-0.6 1.4-3.3 1.9-3.8 2.6-3.2 7.5-3.4 7.5-3.4 0 0 0.8 4.9-1.8 8.1-0.7 0.8-1.6 1.4-2.5 1.9l-1.9 0.9c0.9-0.5 3.6-1.7 4.6-1.8 4.1-0.5 7.8 2.8 7.8 2.8 0 0-2.8 4-6.9 4.5-1.5 0.2-2.9-0.1-4.2-0.6l-1.5-0.6c1.1 0.4 3.7 1.6 4.5 2.5 2.9 2.9 2.6 7.8 2.6 7.8 0 0-5 0.3-7.8-2.6-0.7-0.7-1.9-3.8-2.3-4.6l0.8 2.4q0.4 1.1 0.4 2.3c0.1 4.1-3.6 7.4-3.6 7.4 0 0-3.7-3.2-3.8-7.3 0-0.8 1.4-4.7 1.4-4.7l-1.2 2.6c-1.7 2.5-4.5 4.2-7.5 4.5-1 0.1-1.6 0-1.6 0 0 0-0.3-4.9 2.6-7.8 0.8-0.9 1.8-1.4 2.8-1.8l1.7-0.7c0 0-4.3 1.4-5.7 1.2-4.1-0.5-6.9-4.5-6.9-4.5 0 0 3.7-3.3 7.8-2.8 0.8 0.1 3.8 1.6 4.5 1.9l-2.2-1.2c-0.7-0.4-1.5-1-2.1-1.7-2.6-3.2-1.8-8.1-1.8-8.1 0 0 4.9 0.2 7.5 3.4 0.5 0.6 1.9 3.2 2.1 3.9l-0.9-2c-0.3-0.8-0.5-1.6-0.5-2.5-0.1-4.1 3.6-7.5 3.6-7.5 0 0 3.7 3.3 3.8 7.3 0 0.9-0.1 1.8-0.4 2.6"/>
		<path id="Layer" class="s1" d="m26.8 24.2c-2.8 0-5-2.3-5-5 0-2.8 2.2-5 5-5 2.8 0 5 2.2 5 5 0 2.7-2.2 5-5 5z"/>
		<path id="Layer" class="s2" d="m9.4 32c2.3 2.8 1.6 7.3 1.6 7.3 0 0-4.5-0.2-6.8-3.1-2.4-2.9-1.7-7.3-1.7-7.3 0 0 4.5 0.2 6.9 3.1z"/>
		<path id="Layer" class="s2" d="m22.7 45.5c2.8-2.3 7.2-1.6 7.2-1.6 0 0-0.2 4.4-3 6.8-2.9 2.3-7.3 1.6-7.3 1.6 0 0 0.2-4.5 3.1-6.8z"/>
	</g>
	<g id="line">
		<path id="Layer" class="s3" d="m26.8 24.2c-2.8 0-5-2.3-5-5 0-2.8 2.2-5 5-5 2.8 0 5 2.2 5 5 0 2.7-2.2 5-5 5z"/>
		<path id="Layer" class="s3" d="m9.9 31.6c2.7 3.4 1.9 8.7 1.9 8.7 0 0-5.3-0.3-8.1-3.7-2.8-3.4-2-8.7-2-8.7 0 0 5.4 0.3 8.2 3.7z"/>
		<path id="Layer" class="s3" d="m29.3 13.5c0.3-0.6 1.4-3.3 1.9-3.8 2.6-3.2 7.5-3.4 7.5-3.4 0 0 0.8 4.9-1.8 8.1-0.7 0.8-1.6 1.4-2.5 1.9l-1.9 0.9c0.9-0.5 3.6-1.7 4.6-1.8 4.1-0.5 7.8 2.8 7.8 2.8 0 0-2.8 4-6.9 4.5-1.5 0.2-2.9-0.1-4.2-0.6l-1.5-0.6c1.1 0.4 3.7 1.6 4.5 2.5 2.9 2.9 2.6 7.8 2.6 7.8 0 0-5 0.3-7.8-2.6-0.7-0.7-1.9-3.8-2.3-4.6l0.8 2.4q0.4 1.1 0.4 2.3c0.1 4.1-3.6 7.4-3.6 7.4 0 0-3.7-3.2-3.8-7.3 0-0.8 1.4-4.7 1.4-4.7l-1.2 2.6c-1.7 2.5-4.5 4.2-7.5 4.5-1 0.1-1.6 0-1.6 0 0 0-0.3-4.9 2.6-7.8 0.8-0.9 1.8-1.4 2.8-1.8l1.7-0.7c0 0-4.3 1.4-5.7 1.2-4.1-0.5-6.9-4.5-6.9-4.5 0 0 3.7-3.3 7.8-2.8 0.8 0.1 3.8 1.6 4.5 1.9l-2.2-1.2c-0.7-0.4-1.5-1-2.1-1.7-2.6-3.2-1.8-8.1-1.8-8.1 0 0 4.9 0.2 7.5 3.4 0.5 0.6 1.9 3.2 2.1 3.9l-0.9-2c-0.3-0.8-0.5-1.6-0.5-2.5-0.1-4.1 3.6-7.5 3.6-7.5 0 0 3.7 3.3 3.8 7.3 0 0.9-0.1 1.8-0.4 2.6"/>
		<path id="Layer" class="s3" d="m22.2 45c3.5-2.8 8.7-2 8.7-2 0 0-0.2 5.4-3.6 8.2-3.4 2.8-8.7 1.9-8.7 1.9 0 0 0.2-5.3 3.6-8.1z"/>
		<path id="Layer" class="s3" d="m20.4 34c-3.5 3.6-7.7 10.3-5.9 20.8"/>
	</g>
</svg>